<svg xmlns="http://www.w3.org/2000/svg" version="1.1" xmlns:xlink="http://www.w3.org/1999/xlink" width="512" height="512" x="0" y="0" viewBox="0 0 32 32" style="enable-background:new 0 0 512 512" xml:space="preserve" class=""><g><path d="M20 26h-8a1 1 0 0 0-1 1v2c0 1.654 1.346 3 3 3h4c1.654 0 3-1.346 3-3v-2a1 1 0 0 0-1-1z" fill="#FF5F1F" opacity="1" data-original="#FF5F1F"></path><circle cx="16" cy="12" r="3.418" fill="#FF5F1F" opacity="1" data-original="#FF5F1F"></circle><path d="M27.89 10.34C27.18 5.01 22.77.7 17.42.08c-3.43-.4-6.86.69-9.41 2.96A12.023 12.023 0 0 0 4 12c0 4.5 2.48 8.58 6.47 10.65.32.17.53.51.53.88v.65c.31-.12.65-.18 1-.18h8c.35 0 .69.06 1 .18v-.65c0-.37.2-.71.53-.88 4.55-2.36 7.04-7.19 6.36-12.31zM22 13h-.678a5.387 5.387 0 0 1-.852 2.056l.48.48a1 1 0 1 1-1.415 1.413l-.48-.48a5.387 5.387 0 0 1-2.055.853V18a1 1 0 1 1-2 0v-.678a5.387 5.387 0 0 1-2.056-.852l-.48.48a.997.997 0 0 1-1.413 0 1 1 0 0 1 0-1.415l.48-.48A5.387 5.387 0 0 1 10.677 13H10a1 1 0 1 1 0-2h.678c.141-.75.435-1.448.852-2.056l-.48-.48a1 1 0 1 1 1.415-1.413l.48.48A5.387 5.387 0 0 1 15 6.677V6a1 1 0 1 1 2 0v.678c.751.141 1.448.435 2.056.852l.48-.48a1 1 0 1 1 1.413 1.415l-.479.48c.417.607.71 1.304.852 2.055H22a1 1 0 1 1 0 2zM2 13H1a1 1 0 1 1 0-2h1a1 1 0 1 1 0 2zM6.1 3.1a.997.997 0 0 1-.706-.292L4.687 2.1A1 1 0 1 1 6.1.687l.707.707A1 1 0 0 1 6.1 3.1zM5.394 23.606a1 1 0 0 1-.707-1.707l.707-.707a1 1 0 1 1 1.414 1.414l-.707.707a.997.997 0 0 1-.707.293zM31 13h-1a1 1 0 1 1 0-2h1a1 1 0 1 1 0 2zM25.9 3.1a1 1 0 0 1-.707-1.707l.706-.706A1 1 0 1 1 27.314 2.1l-.707.707a.997.997 0 0 1-.707.293zM26.606 23.606a.997.997 0 0 1-.707-.293l-.707-.707a1 1 0 1 1 1.415-1.414l.707.707a1 1 0 0 1-.707 1.707z" fill="#FF5F1F" opacity="1" data-original="#FF5F1F"></path></g></svg>